<?xml version="1.0" encoding="UTF-8" standalone="no"?>
<!-- Created with Inkscape (http://www.inkscape.org/) -->
<svg
   xmlns:svg="http://www.w3.org/2000/svg"
   xmlns="http://www.w3.org/2000/svg"
   version="1.0"
   width="921.25983"
   height="141.73228"
   id="svg1879">
  <defs
     id="defs1881" />
  <g
     id="layer1">
    <g
       transform="matrix(3.543307e-5,0,0,3.543307e-5,-2.122654e-3,2.272949e-6)"
       style="fill-rule:evenodd"
       id="Ebene_x0020_1">
  
  <g
   id="_47537800">
   <path
   d="M 16277100,1025370 L 15890310,1025370 L 15890310,854750 C 15894240,642340 15886580,475560 16152010,475560 C 16208940,475560 16262080,483110 16326560,494520 L 16326560,289590 C 16250600,278370 16193670,274680 16125500,274680 C 15742510,274680 15647830,509620 15651460,847200 L 15651460,1025370 L 15317850,1025370 L 15317850,1226260 L 15651460,1226260 L 15651460,2982040 L 15890310,2982040 L 15890310,1226260 L 16277100,1226260 L 16277100,1025370 L 16277100,1025370 z M 17178950,1169440 C 17637780,1169440 17865410,1586550 17865410,2003710 C 17865410,2420810 17637780,2837970 17178950,2837970 C 16720120,2837970 16492730,2420810 16492730,2003710 C 16492730,1586550 16720120,1169440 17178950,1169440 z M 17178950,968490 C 16579860,968490 16253700,1442600 16253700,2003710 C 16253700,2564880 16579860,3038870 17178950,3038870 C 17778160,3038870 18104210,2564880 18104210,2003710 C 18104210,1442600 17778160,968490 17178950,968490 z M 18308480,2982040 L 18547400,2982040 L 18547400,1939230 C 18547400,1533470 18843270,1215030 19275400,1237740 L 19275400,998930 C 18922850,983780 18657360,1169440 18536050,1484260 L 18528510,1484260 L 18528510,1025370 L 18308480,1025370 L 18308480,2982040 z M 20761840,1598020 C 20746490,1173240 20435670,968490 20045010,968490 C 19700120,968490 19309400,1120110 19309400,1518380 C 19309400,1852090 19544580,1958190 19855600,2041690 L 20162620,2109860 C 20378730,2162930 20591200,2238880 20591200,2466290 C 20591200,2739380 20280250,2837970 20056420,2837970 C 19737980,2837970 19498990,2671080 19480100,2348730 L 19241230,2348730 C 19279200,2826500 19590040,3038870 20045010,3038870 C 20409160,3038870 20830010,2875890 20830010,2451120 C 20830010,2109860 20545680,1950570 20272580,1908790 L 19954190,1836940 C 19791100,1795160 19548380,1719200 19548380,1506970 C 19548380,1253010 19798660,1169440 20011010,1169440 C 20284050,1169440 20511500,1302220 20522860,1598020 L 20761840,1598020 z M 22642600,1639790 C 22589350,1192210 22267170,968490 21849990,968490 C 21250910,968490 20924800,1442600 20924800,2003710 C 20924800,2564880 21250910,3038870 21849990,3038870 C 22286120,3038870 22593210,2750730 22657760,2280560 L 22418770,2280560 C 22388530,2606490 22145740,2837970 21849990,2837970 C 21391120,2837970 21163670,2420810 21163670,2003710 C 21163670,1586550 21391120,1169440 21849990,1169440 C 22161010,1169440 22339250,1347680 22403750,1639790 L 22642600,1639790 z M 22835040,2982040 L 23073910,2982040 L 23073910,1840630 C 23081470,1457750 23309090,1169440 23688270,1169440 C 24075070,1169440 24184790,1423470 24184790,1761100 L 24184790,2982040 L 24423820,2982040 L 24423820,1723070 C 24423820,1256690 24257000,968490 23707240,968490 C 23430280,968490 23168700,1127670 23081470,1362840 L 23073910,1362840 L 23073910,274680 L 22835040,274680 L 22835040,2982040 z M 25101900,437590 L 24863040,437590 L 24863040,1025370 L 24521720,1025370 L 24521720,1226260 L 24863040,1226260 L 24863040,2564880 C 24859230,2898600 24969250,3004740 25287690,3004740 C 25359770,3004740 25427960,2997190 25500040,2997190 L 25500040,2792440 C 25431870,2800000 25363590,2803680 25295290,2803680 C 25124600,2792440 25101900,2701460 25101900,2545920 L 25101900,1226260 L 25500040,1226260 L 25500040,1025370 L 25101900,1025370 L 25101900,437590 L 25101900,437590 z M 1364600,274680 L 826120,274680 L 826120,718280 L 1364600,718280 L 1364600,274680 z M 500080,3657020 C 556960,3664460 617580,3672180 674390,3672180 C 1216730,3672180 1364600,3482530 1364600,3080580 L 1364600,1021510 L 826250,1021510 L 826250,3054020 C 826250,3201940 727650,3228450 617580,3228450 C 572110,3228450 534140,3224770 500080,3213290 L 500080,3657020 L 500080,3657020 z M 3536890,1021510 L 2998370,1021510 L 2998370,2049290 C 2998370,2447320 2873250,2610400 2581190,2610400 C 2331050,2610400 2236190,2451120 2236190,2128820 L 2236190,1021510 L 1697780,1021510 L 1697780,2227420 C 1697780,2712740 1841790,3035180 2414430,3035180 C 2642000,3035180 2877060,2928970 3013630,2709010 L 3024870,2709010 L 3024870,2982040 L 3536890,2982040 L 3536890,1021510 L 3536890,1021510 z M 4726800,2519410 C 4396830,2519410 4290680,2212150 4290680,1931620 C 4290680,1639790 4423460,1374190 4726800,1374190 C 5075560,1374190 5185510,1658640 5185510,1977210 C 5185510,2257720 5033840,2519410 4726800,2519410 z M 5697530,1021510 L 5185510,1021510 L 5185510,1283200 L 5178080,1283200 C 5049060,1055810 4851910,968490 4594030,968490 C 4044150,968490 3752280,1431020 3752280,1939230 C 3752280,2477690 4002490,2925110 4590280,2925110 C 4825400,2925110 5060460,2826500 5178080,2621760 L 5185510,2621760 L 5185510,2879640 C 5189310,3160280 5052970,3365030 4753310,3365030 C 4563710,3365030 4400630,3296740 4351250,3095730 L 3816640,3095730 C 3843260,3543150 4294420,3725320 4681220,3725320 C 5583710,3725320 5697530,3179180 5697530,2856810 L 5697530,1021510 L 5697530,1021510 z M 6440160,1791410 C 6447820,1639790 6546360,1374190 6887800,1374190 C 7149430,1374190 7266860,1518380 7316200,1791410 L 6440160,1791410 z M 7854720,2132620 C 7892580,1529740 7570340,968490 6902890,968490 C 6307490,968490 5901860,1415980 5901860,2003710 C 5901860,2610400 6284790,3035180 6902890,3035180 C 7346510,3035180 7668880,2837970 7820490,2375230 L 7346510,2375230 C 7312340,2496640 7137960,2629370 6921860,2629370 C 6622310,2629370 6455310,2473950 6440160,2132620 L 7854720,2132620 z M 8040210,2982040 L 8578620,2982040 L 8578620,1954380 C 8578620,1556360 8703840,1393270 8995660,1393270 C 9246120,1393270 9340790,1552430 9340790,1874740 L 9340790,2982040 L 9879330,2982040 L 9879330,1776140 C 9879330,1290750 9735130,968490 9162550,968490 C 8935100,968490 8700040,1074650 8563590,1294670 L 8552110,1294670 L 8552110,1021510 L 8040210,1021510 L 8040210,2982040 L 8040210,2982040 z M 11547030,1996160 C 11547030,2318400 11440870,2629370 11084390,2629370 C 10750620,2629370 10610420,2307060 10610420,1999850 C 10610420,1677540 10731710,1374190 11084390,1374190 C 11433210,1374190 11547030,1677540 11547030,1996160 z M 11554630,2982040 L 12066470,2982040 L 12066470,274680 L 11528060,274680 L 11528060,1260440 L 11520520,1260440 L 11524320,1260440 C 11399210,1067040 11171530,968490 10940330,968490 C 10363940,968490 10072010,1457750 10072010,1984810 C 10072010,2526970 10360190,3035180 10951740,3035180 C 11201950,3035180 11421920,2944060 11547030,2731830 L 11554630,2731830 L 11554630,2982040 z "
   style="fill:black;fill-opacity:1"
   id="_47246240" />

   <path
   d="M 12359800,1686690 C 12359800,916380 12984150,291790 13754650,291790 C 14524840,291790 15149550,916380 15149550,1686690 C 15149550,2457130 14524840,3081530 13754650,3081530 C 12984150,3081530 12359800,2457130 12359800,1686690 z "
   style="fill:#cc0001"
   id="_46828632" />

   <path
   d="M 13659600,2772180 L 13622270,2766240 L 13599080,2912920 C 13594880,2939550 13586900,2953150 13562600,2949480 C 13540020,2945790 13535730,2930750 13539480,2906510 L 13541260,2895510 L 13503870,2889560 L 13502090,2900980 C 13495980,2939730 13509760,2972240 13554820,2979370 C 13616140,2989120 13630830,2953750 13636710,2916730 L 13659600,2772180 z M 13684380,2911020 C 13685380,2966350 13721220,2993160 13774360,2992390 C 13827550,2991430 13862500,2963320 13861430,2907980 L 13859110,2769690 L 13821310,2770400 L 13823570,2896220 C 13823980,2925220 13822740,2958920 13773830,2959640 C 13724860,2960530 13722350,2926950 13722000,2897890 L 13719740,2772180 L 13681880,2772890 L 13684380,2911020 z M 14081270,2829060 L 13991350,2848140 L 13997290,2876250 L 14053520,2864300 C 14060590,2900320 14044720,2927490 14006620,2934730 C 13961400,2944480 13934050,2908530 13925430,2868110 C 13916760,2827520 13927160,2783530 13972570,2773910 C 13999130,2768380 14026300,2777350 14035810,2804400 L 14071830,2796730 C 14056190,2750250 14012260,2733960 13966090,2743830 C 13902740,2757200 13875570,2815460 13888480,2875960 C 13901070,2936280 13949740,2978540 14013170,2965040 C 14038900,2959520 14055240,2948350 14070280,2921660 L 14081270,2945260 L 14104930,2940260 L 14081270,2829060 z M 14158530,2921310 L 14304680,2862230 L 14292380,2832030 L 14181360,2876900 L 14157770,2818370 L 14258560,2777600 L 14247090,2749000 L 14146170,2789660 L 14124890,2737230 L 14234140,2693140 L 14221720,2662950 L 14077650,2721070 L 14158530,2921310 z M 14349080,2841370 L 14379980,2822940 L 14298080,2686770 L 14299040,2686240 L 14464970,2771770 L 14499150,2751140 L 14387890,2566070 L 14357100,2584670 L 14439060,2720960 L 14438590,2721360 L 14272000,2635730 L 14237870,2656290 L 14349080,2841370 z M 14545210,2716560 L 14610770,2655570 C 14659500,2610170 14647500,2555190 14606790,2511630 C 14566020,2468000 14512160,2452250 14463550,2497660 L 14398000,2558580 L 14545210,2716560 z M 14446660,2555430 L 14473950,2530110 C 14517270,2489640 14549600,2505800 14579150,2537300 C 14608620,2569030 14622530,2602440 14579150,2642860 L 14551870,2668120 L 14446660,2555430 z M 14783240,2466760 L 14804340,2435430 L 14724930,2381880 L 14779500,2300940 L 14753880,2283650 L 14699440,2364590 L 14652430,2333090 L 14714650,2240790 L 14687670,2222480 L 14604230,2346170 L 14783240,2466760 z M 14753280,2141240 C 14772010,2099040 14817120,2097920 14854910,2114670 C 14892840,2131560 14922370,2165910 14903530,2208150 C 14884690,2250480 14839470,2251490 14801540,2234670 C 14763810,2217910 14734440,2183490 14753280,2141240 z M 14725000,2128700 C 14698600,2187780 14729930,2244120 14786150,2269200 C 14842620,2294270 14905370,2279830 14931700,2220640 C 14958030,2161560 14926770,2105280 14870370,2080200 C 14814090,2055120 14751330,2069570 14725000,2128700 z M 14983940,2077820 L 14992450,2041090 L 14905790,2021130 L 14918390,1966860 C 14926170,1932990 14945140,1929000 14983710,1937920 C 14994050,1940170 15005520,1942900 15015980,1939410 L 15025080,1899930 C 15014620,1905820 14991380,1904220 14967010,1898570 C 14933670,1890910 14920060,1907310 14915300,1919680 L 14914590,1919500 C 14913990,1912060 14910130,1881820 14869780,1872490 C 14834180,1864160 14807430,1882940 14796790,1928880 L 14773550,2029440 L 14983940,2077820 z M 14812250,1999430 L 14825980,1939640 C 14830380,1920390 14839700,1904330 14866620,1910570 C 14888730,1915570 14897110,1930840 14891710,1954210 L 14877860,2014580 L 14812250,1999430 z M 14958210,1862850 C 15011640,1864930 15037370,1826180 15039930,1776970 C 15042190,1734180 15025080,1690140 14976870,1687700 C 14954340,1686450 14929450,1698760 14919640,1726800 C 14915720,1737750 14900680,1784810 14899660,1788030 C 14894730,1803240 14885710,1813100 14870600,1812280 C 14848850,1811140 14843690,1788740 14844580,1771330 C 14845940,1745240 14857180,1727110 14885040,1726800 L 14886840,1689010 C 14842020,1686580 14816230,1723070 14813850,1768120 C 14811830,1807050 14829960,1848000 14873160,1850380 C 14895460,1851380 14918390,1841760 14930390,1805440 C 14940080,1776260 14945010,1756820 14951430,1742020 C 14955250,1733470 14962430,1724730 14979010,1725690 C 14995290,1726450 15010930,1739710 15009330,1772990 C 15007600,1803190 14993450,1826900 14960180,1825050 L 14958210,1862850 z M 14870490,1478200 C 14824850,1488370 14802790,1529790 14808430,1578110 C 14816340,1642300 14872040,1674450 14933370,1667030 C 14994580,1659540 15040820,1614720 15032980,1550590 C 15026500,1498700 14986690,1466660 14934970,1469940 L 14939500,1506610 C 14971110,1505660 14998270,1521050 15002370,1554270 C 15007960,1600150 14969870,1624410 14928740,1629400 C 14887600,1634570 14844690,1620240 14839050,1574360 C 14835180,1543100 14851230,1525100 14875060,1515700 L 14870490,1478200 z M 15007240,1410270 L 14996840,1373900 L 14903120,1400700 L 14876130,1306200 L 14969690,1279270 L 14959340,1243080 L 14751860,1302570 L 14762200,1338880 L 14844820,1315240 L 14871800,1409620 L 14789300,1433390 L 14799650,1469700 L 15007240,1410270 z M 14777540,1285640 L 14747640,1224250 L 14912330,1143890 L 14895690,1109890 L 14730930,1190240 L 14700980,1128490 L 14671560,1142820 L 14748110,1299900 L 14777540,1285640 z M 12973550,554190 L 13789220,1208500 L 14519830,551220 L 14116160,1478150 L 14495050,1799500 L 14072120,1831120 L 14069390,2267230 L 13805740,1991710 L 12946040,2761600 L 13393800,1877000 L 12978970,1905640 L 13456860,1486700 L 12973550,554190 z "
   style="fill:white;fill-opacity:1"
   id="_47558552" />

  </g>

 </g>
  </g>
</svg>
